<?xml version="1.0"?>
<svg xmlns="http://www.w3.org/2000/svg" viewBox="-28 0 512 512" width="70px" height="70px" class=""><g><path d="m183.335938 241h90v30h-90zm0 0" data-original="#000000" class="" data-old_color="#FDFAFA" fill="#FFFFFF"/><path d="m441.675781 115.511719-98.542969 56.890625 7.097657-26.492188-28.980469-7.761718-13.265625 49.511718c-15.253906-17.757812-36.332031-30.367187-60.238281-34.855468l36.195312-36.199219-21.210937-21.210938-19.394531 19.390625v-114.785156h-30v114.785156l-19.394532-19.390625-21.210937 21.210938 36.199219 36.199219c-23.910157 4.488281-44.984376 17.101562-60.242188 34.855468l-13.265625-49.511718-28.980469 7.765624 7.097656 26.492188-98.539062-56.894531-15 25.976562 98.542969 56.894531-26.492188 7.101563 7.765625 28.976563 49.453125-13.25c-3.835937 10.890624-5.933593 22.601562-5.933593 34.789062s2.097656 23.898438 5.933593 34.789062l-49.457031-13.25-7.761719 28.980469 26.492188 7.097657-98.542969 56.894531 15 25.976562 98.542969-56.890625-7.101563 26.492188 28.980469 7.765625 13.265625-49.511719c15.257812 17.753906 36.335938 30.367188 60.242188 34.851562l-36.199219 36.199219 21.214843 21.214844 19.390626-19.394531v114.785156h30v-114.785156l19.394531 19.390625 21.214843-21.210938-36.199218-36.199219c23.90625-4.488281 44.984375-17.097656 60.238281-34.855468l13.269531 49.511718 28.976563-7.761718-7.097657-26.492188 98.542969 56.890625 15-25.976562-98.542969-56.894531 26.488282-7.101563-7.761719-28.976563-49.453125 13.25c3.835938-10.890624 5.929688-22.601562 5.929688-34.789062s-2.09375-23.898438-5.929688-34.789062l49.453125 13.25 7.761719-28.980469-26.488282-7.097657 98.542969-56.894531zm-213.339843 215.488281c-41.355469 0-75-33.644531-75-75s33.644531-75 75-75c41.355468 0 75 33.644531 75 75s-33.644532 75-75 75zm0 0" data-original="#000000" class="" data-old_color="#FDFAFA" fill="#FFFFFF"/></g> </svg>
